<svg width="2430" height="634" viewBox="0 0 2430 634" fill="none" xmlns="http://www.w3.org/2000/svg">
<rect width="2430" height="634" fill="white"/>
<g clip-path="url(#clip0_19_237)">
<mask id="path-1-inside-1_19_237" fill="white">
<path d="M80.8976 128.887C75.8857 128.887 71.079 130.878 67.535 134.422C63.991 137.966 62 142.773 62 147.785V457.706C62 460.188 62.4888 462.645 63.4385 464.938C64.3882 467.231 65.7802 469.314 67.535 471.069C69.2898 472.824 71.3731 474.216 73.6658 475.165C75.9586 476.115 78.416 476.604 80.8976 476.604H496.646C501.658 476.604 506.464 474.613 510.008 471.069C513.552 467.525 515.543 462.718 515.543 457.706V147.785C515.543 142.773 513.552 137.966 510.008 134.422C506.464 130.878 501.658 128.887 496.646 128.887L495.325 126.708L494.003 124.565L492.678 122.459L491.35 120.389L490.02 118.355L488.687 116.358L487.352 114.397L486.015 112.472L484.675 110.583L483.333 108.731L481.988 106.914L480.642 105.133L479.292 103.388L477.941 101.679L476.587 100.006L475.23 98.3682L473.872 96.7658L472.511 95.1989L471.148 93.6673L469.783 92.171L468.415 90.7097L467.045 89.2835L465.673 87.8922L464.3 86.5358L462.923 85.2141L461.545 83.927L460.165 82.6745L458.783 81.4565L457.398 80.2728L456.012 79.1234L454.624 78.0082L453.234 76.9272L451.842 75.8801L450.448 74.8671L449.053 73.8879L447.655 72.9425L446.256 72.0309L444.855 71.1529L443.452 70.3085L442.048 69.4977L440.642 68.7204L439.235 67.9765L437.826 67.266L436.415 66.5888L435.003 65.9449L433.59 65.3343L432.175 64.7569L430.759 64.2126L429.341 63.7016L427.922 63.2236L426.502 62.7787L425.081 62.3669L423.658 61.9882L422.235 61.6425L420.81 61.3298L419.384 61.0501L417.957 60.8034L416.53 60.5897L415.101 60.409L413.672 60.2612L412.241 60.1465L410.81 60.0647L409.378 60.0158L407.945 60L406.512 60.0171L405.078 60.0671L403.644 60.1501L402.209 60.2661L400.773 60.415L399.338 60.5969L397.902 60.8117L396.465 61.0595L395.028 61.3403L393.591 61.6541L392.154 62.0009L390.717 62.3806L389.28 62.7934L387.842 63.2391L386.405 63.718L384.968 64.2299L383.531 64.7749L382.094 65.3531L380.657 65.9644L379.221 66.609L377.785 67.2867L376.349 67.9978L374.914 68.7422L373.479 69.52L372.045 70.3312L370.612 71.1759L369.179 72.0542L367.746 72.9661L366.315 73.9117L364.884 74.891L363.454 75.9042L362.026 76.9512L360.597 78.0323L359.17 79.1474L357.744 80.2967L356.319 81.4802L354.895 82.698L353.473 83.9502L352.051 85.237L350.631 86.5583L349.212 87.9143L347.794 89.3051L346.378 90.7308L344.963 92.1915L343.549 93.6873L342.137 95.2182L340.726 96.7844L339.317 98.386L337.91 100.023L336.504 101.696L335.099 103.404L333.696 105.148L332.295 106.927L330.896 108.743L329.498 110.595L328.102 112.482L326.708 114.406L325.316 116.366L323.925 118.362L322.536 120.395L321.149 122.463L319.763 124.568L318.38 126.71L316.998 128.887H260.545L259.163 126.71L257.78 124.568L256.395 122.463L255.007 120.395L253.618 118.362L252.228 116.366L250.835 114.406L249.441 112.482L248.045 110.595L246.647 108.743L245.248 106.927L243.847 105.148L242.444 103.404L241.04 101.696L239.634 100.023L238.226 98.386L236.817 96.7844L235.406 95.2182L233.994 93.6873L232.581 92.1915L231.166 90.7308L229.749 89.3051L228.331 87.9143L226.912 86.5583L225.492 85.237L224.071 83.9502L222.648 82.698L221.224 81.4802L219.799 80.2967L218.373 79.1474L216.946 78.0323L215.518 76.9512L214.089 75.9042L212.659 74.891L211.228 73.9117L209.797 72.9661L208.365 72.0542L206.932 71.1759L205.498 70.3312L204.064 69.52L202.629 68.7422L201.194 67.9978L199.759 67.2867L198.323 66.609L196.886 65.9644L195.45 65.3531L194.013 64.7749L192.576 64.2299L191.138 63.718L189.701 63.2391L188.264 62.7934L186.826 62.3806L185.389 62.0009L183.952 61.6541L182.515 61.3403L181.078 61.0595L179.642 60.8117L178.206 60.5969L176.77 60.415L175.334 60.2661L173.899 60.1501L172.465 60.0671L171.031 60.0171L169.598 60L168.165 60.0158L166.733 60.0647L165.302 60.1465L163.872 60.2612L162.442 60.409L161.014 60.5897L159.586 60.8034L158.159 61.0501L156.733 61.3298L155.309 61.6425L153.885 61.9882L152.462 62.3669L151.041 62.7787L149.621 63.2236L148.202 63.7016L146.785 64.2126L145.368 64.7569L143.954 65.3343L142.54 65.9449L141.128 66.5888L139.718 67.266L138.309 67.9765L136.901 68.7204L135.495 69.4977L134.091 70.3085L132.688 71.1529L131.287 72.0309L129.888 72.9425L128.491 73.8879L127.095 74.8671L125.701 75.8801L124.309 76.9272L122.919 78.0082L121.531 79.1234L120.145 80.2728L118.761 81.4565L117.378 82.6745L115.998 83.927L114.62 85.2141L113.244 86.5358L111.87 87.8922L110.498 89.2835L109.128 90.7097L107.761 92.171L106.395 93.6673L105.032 95.1989L103.672 96.7658L102.313 98.3682L100.957 100.006L99.6027 101.679L98.2511 103.388L96.9018 105.133L95.5549 106.914L94.2103 108.731L92.8681 110.583L91.5283 112.472L90.191 114.397L88.856 116.358L87.5235 118.355L86.1934 120.389L84.8658 122.459L83.5406 124.565L82.2179 126.708L80.8976 128.887Z"/>
</mask>
<path d="M80.8976 128.887C75.8857 128.887 71.079 130.878 67.535 134.422C63.991 137.966 62 142.773 62 147.785V457.706C62 460.188 62.4888 462.645 63.4385 464.938C64.3882 467.231 65.7802 469.314 67.535 471.069C69.2898 472.824 71.3731 474.216 73.6658 475.165C75.9586 476.115 78.416 476.604 80.8976 476.604H496.646C501.658 476.604 506.464 474.613 510.008 471.069C513.552 467.525 515.543 462.718 515.543 457.706V147.785C515.543 142.773 513.552 137.966 510.008 134.422C506.464 130.878 501.658 128.887 496.646 128.887L495.325 126.708L494.003 124.565L492.678 122.459L491.35 120.389L490.02 118.355L488.687 116.358L487.352 114.397L486.015 112.472L484.675 110.583L483.333 108.731L481.988 106.914L480.642 105.133L479.292 103.388L477.941 101.679L476.587 100.006L475.23 98.3682L473.872 96.7658L472.511 95.1989L471.148 93.6673L469.783 92.171L468.415 90.7097L467.045 89.2835L465.673 87.8922L464.3 86.5358L462.923 85.2141L461.545 83.927L460.165 82.6745L458.783 81.4565L457.398 80.2728L456.012 79.1234L454.624 78.0082L453.234 76.9272L451.842 75.8801L450.448 74.8671L449.053 73.8879L447.655 72.9425L446.256 72.0309L444.855 71.1529L443.452 70.3085L442.048 69.4977L440.642 68.7204L439.235 67.9765L437.826 67.266L436.415 66.5888L435.003 65.9449L433.59 65.3343L432.175 64.7569L430.759 64.2126L429.341 63.7016L427.922 63.2236L426.502 62.7787L425.081 62.3669L423.658 61.9882L422.235 61.6425L420.81 61.3298L419.384 61.0501L417.957 60.8034L416.53 60.5897L415.101 60.409L413.672 60.2612L412.241 60.1465L410.81 60.0647L409.378 60.0158L407.945 60L406.512 60.0171L405.078 60.0671L403.644 60.1501L402.209 60.2661L400.773 60.415L399.338 60.5969L397.902 60.8117L396.465 61.0595L395.028 61.3403L393.591 61.6541L392.154 62.0009L390.717 62.3806L389.28 62.7934L387.842 63.2391L386.405 63.718L384.968 64.2299L383.531 64.7749L382.094 65.3531L380.657 65.9644L379.221 66.609L377.785 67.2867L376.349 67.9978L374.914 68.7422L373.479 69.52L372.045 70.3312L370.612 71.1759L369.179 72.0542L367.746 72.9661L366.315 73.9117L364.884 74.891L363.454 75.9042L362.026 76.9512L360.597 78.0323L359.17 79.1474L357.744 80.2967L356.319 81.4802L354.895 82.698L353.473 83.9502L352.051 85.237L350.631 86.5583L349.212 87.9143L347.794 89.3051L346.378 90.7308L344.963 92.1915L343.549 93.6873L342.137 95.2182L340.726 96.7844L339.317 98.386L337.91 100.023L336.504 101.696L335.099 103.404L333.696 105.148L332.295 106.927L330.896 108.743L329.498 110.595L328.102 112.482L326.708 114.406L325.316 116.366L323.925 118.362L322.536 120.395L321.149 122.463L319.763 124.568L318.38 126.71L316.998 128.887H260.545L259.163 126.71L257.78 124.568L256.395 122.463L255.007 120.395L253.618 118.362L252.228 116.366L250.835 114.406L249.441 112.482L248.045 110.595L246.647 108.743L245.248 106.927L243.847 105.148L242.444 103.404L241.04 101.696L239.634 100.023L238.226 98.386L236.817 96.7844L235.406 95.2182L233.994 93.6873L232.581 92.1915L231.166 90.7308L229.749 89.3051L228.331 87.9143L226.912 86.5583L225.492 85.237L224.071 83.9502L222.648 82.698L221.224 81.4802L219.799 80.2967L218.373 79.1474L216.946 78.0323L215.518 76.9512L214.089 75.9042L212.659 74.891L211.228 73.9117L209.797 72.9661L208.365 72.0542L206.932 71.1759L205.498 70.3312L204.064 69.52L202.629 68.7422L201.194 67.9978L199.759 67.2867L198.323 66.609L196.886 65.9644L195.45 65.3531L194.013 64.7749L192.576 64.2299L191.138 63.718L189.701 63.2391L188.264 62.7934L186.826 62.3806L185.389 62.0009L183.952 61.6541L182.515 61.3403L181.078 61.0595L179.642 60.8117L178.206 60.5969L176.77 60.415L175.334 60.2661L173.899 60.1501L172.465 60.0671L171.031 60.0171L169.598 60L168.165 60.0158L166.733 60.0647L165.302 60.1465L163.872 60.2612L162.442 60.409L161.014 60.5897L159.586 60.8034L158.159 61.0501L156.733 61.3298L155.309 61.6425L153.885 61.9882L152.462 62.3669L151.041 62.7787L149.621 63.2236L148.202 63.7016L146.785 64.2126L145.368 64.7569L143.954 65.3343L142.54 65.9449L141.128 66.5888L139.718 67.266L138.309 67.9765L136.901 68.7204L135.495 69.4977L134.091 70.3085L132.688 71.1529L131.287 72.0309L129.888 72.9425L128.491 73.8879L127.095 74.8671L125.701 75.8801L124.309 76.9272L122.919 78.0082L121.531 79.1234L120.145 80.2728L118.761 81.4565L117.378 82.6745L115.998 83.927L114.62 85.2141L113.244 86.5358L111.87 87.8922L110.498 89.2835L109.128 90.7097L107.761 92.171L106.395 93.6673L105.032 95.1989L103.672 96.7658L102.313 98.3682L100.957 100.006L99.6027 101.679L98.2511 103.388L96.9018 105.133L95.5549 106.914L94.2103 108.731L92.8681 110.583L91.5283 112.472L90.191 114.397L88.856 116.358L87.5235 118.355L86.1934 120.389L84.8658 122.459L83.5406 124.565L82.2179 126.708L80.8976 128.887Z" stroke="black" stroke-width="2" mask="url(#path-1-inside-1_19_237)"/>
<path d="M394.63 369.392C394.63 372.8 395.984 376.069 398.393 378.479C400.803 380.889 404.072 382.243 407.48 382.243C410.888 382.243 414.157 380.889 416.567 378.479C418.977 376.069 420.33 372.8 420.33 369.392C420.33 365.984 418.977 362.716 416.567 360.306C414.157 357.896 410.888 356.542 407.48 356.542C404.072 356.542 400.803 357.896 398.393 360.306C395.984 362.716 394.63 365.984 394.63 369.392Z" stroke="black" stroke-width="1.42848" stroke-linecap="round" stroke-linejoin="round"/>
<path d="M337.906 284.351H239.638V231.437H337.906V284.351Z" stroke="black" stroke-width="1.42848" stroke-linecap="round" stroke-linejoin="round"/>
<path d="M162.144 367.654C162.144 373.669 164.533 379.437 168.786 383.689C173.039 387.942 178.807 390.331 184.821 390.331C190.836 390.331 196.604 387.942 200.856 383.689C205.109 379.437 207.498 373.669 207.498 367.654C207.498 361.64 205.109 355.872 200.856 351.619C196.604 347.366 190.836 344.977 184.821 344.977C178.807 344.977 173.039 347.366 168.786 351.619C164.533 355.872 162.144 361.64 162.144 367.654Z" stroke="black" stroke-width="1.42848" stroke-linecap="round" stroke-linejoin="round"/>
<path d="M298.156 380.577H279.258V361.68H298.156V380.577Z" stroke="black" stroke-width="1.42848" stroke-linecap="round" stroke-linejoin="round"/>
</g>
<g clip-path="url(#clip1_19_237)">
<path d="M632.854 487.248V475.248H690.547V487.248H795.374V475.248H853.067V487.248H897.421V414.775H909.421V374.201H897.421V293.831H909.421V241.917H897.421V161.547H909.421V120.973H897.421V48.5H853.067V60.5H795.374V48.5H690.547V60.5H632.854V48.5H588.5V120.973H576.5V161.547H588.5V241.917H576.5V293.831H588.5V374.201H576.5V414.775H588.5V487.248H632.854Z" stroke="black"/>
<path d="M820.792 258.49V277.387H801.894V258.49H820.792Z" stroke="black" stroke-linecap="round" stroke-linejoin="round"/>
<path d="M835.559 124.252V173.386H784.535V124.252H835.559Z" stroke="black" stroke-linecap="round" stroke-linejoin="round"/>
<path d="M643.306 211.181H760.471V324.567H643.306V211.181Z" stroke="black" stroke-linecap="round" stroke-linejoin="round"/>
<path d="M785.192 371.824C785.192 377.839 787.581 383.607 791.834 387.86C796.087 392.112 801.855 394.502 807.869 394.502C813.883 394.502 819.652 392.112 823.904 387.86C828.157 383.607 830.546 377.839 830.546 371.824C830.546 365.81 828.157 360.042 823.904 355.789C819.652 351.537 813.883 349.147 807.869 349.147C801.855 349.147 796.087 351.537 791.834 355.789C787.581 360.042 785.192 365.81 785.192 371.824Z" stroke="black" stroke-linecap="round" stroke-linejoin="round"/>
</g>
<g clip-path="url(#clip2_19_237)">
<path d="M1120.68 476.248V464.248H1158.48V404.775H1146.48V362.201H1158.48V283.831H1146.48V229.917H1158.48V151.547H1146.48V108.973H1158.48V49.5H1120.68V37.5H1008.29V49.5H970.5V108.973H982.5V151.547H970.5V229.917H982.5V283.831H970.5V362.201H982.5V404.775H970.5V464.248H1008.29V476.248H1120.68Z" stroke="black"/>
<path d="M1077.06 240.269H1090.28V274.285H1077.06V240.269Z" stroke="black" stroke-linecap="round" stroke-linejoin="round"/>
</g>
<g clip-path="url(#clip3_19_237)">
<path d="M1369.68 476.248V464.248H1407.48V404.775H1395.48V362.201H1407.48V283.831H1395.48V229.917H1407.48V151.547H1395.48V108.973H1407.48V49.5H1369.68V37.5H1257.29V49.5H1219.5V108.973H1231.5V151.547H1219.5V229.917H1231.5V283.831H1219.5V362.201H1231.5V404.775H1219.5V464.248H1257.29V476.248H1369.68Z" stroke="black"/>
</g>
<g clip-path="url(#clip4_19_237)">
<path d="M1505.29 371.421V359.421H1619.68V371.421H1656.48V360.421H1644.48V314.067H1656.48V258.374H1644.48V151.547H1656.48V95.8539H1644.48V49.5004H1656.48V38.5004H1619.68V50.5004H1505.29V38.5004H1468.5V49.5004H1480.5V95.8539H1468.5V151.547H1480.5V258.374H1468.5V314.067H1480.5V360.421H1468.5V371.421H1505.29Z" stroke="black"/>
</g>
<g clip-path="url(#clip5_19_237)">
<path d="M1753.29 371.421V359.421H1867.68V371.421H1904.48V360.421H1892.48V314.067H1904.48V258.374H1892.48V151.547H1904.48V95.8539H1892.48V49.5004H1904.48V38.5004H1867.68V50.5004H1753.29V38.5004H1716.5V49.5004H1728.5V95.8539H1716.5V151.547H1728.5V258.374H1716.5V314.067H1728.5V360.421H1716.5V371.421H1753.29Z" stroke="black"/>
</g>
<g clip-path="url(#clip6_19_237)">
<path d="M2058.85 477.248V465.248H2116.55V477.248H2221.37V465.248H2279.07V477.248H2323.42V404.775H2335.42V364.201H2323.42V283.831H2335.42V231.917H2323.42V151.547H2335.42V110.973H2323.42V38.5H2279.07V50.5H2221.37V38.5H2116.55V50.5H2058.85V38.5H2014.5V110.973H2002.5V151.547H2014.5V231.917H2002.5V283.831H2014.5V364.201H2002.5V404.775H2014.5V477.248H2058.85Z" stroke="black"/>
</g>
<defs>
<clipPath id="clip0_19_237">
<rect width="453.543" height="416.604" fill="white" transform="translate(62 60)"/>
</clipPath>
<clipPath id="clip1_19_237">
<rect width="333.921" height="439.748" fill="white" transform="translate(576 48)"/>
</clipPath>
<clipPath id="clip2_19_237">
<rect width="188.976" height="439.748" fill="white" transform="translate(970 37)"/>
</clipPath>
<clipPath id="clip3_19_237">
<rect width="188.976" height="439.748" fill="white" transform="translate(1219 37)"/>
</clipPath>
<clipPath id="clip4_19_237">
<rect width="188.976" height="333.921" fill="white" transform="translate(1468 38)"/>
</clipPath>
<clipPath id="clip5_19_237">
<rect width="188.976" height="333.921" fill="white" transform="translate(1716 38)"/>
</clipPath>
<clipPath id="clip6_19_237">
<rect width="333.921" height="439.748" fill="white" transform="translate(2002 38)"/>
</clipPath>
</defs>
</svg>
